<svg xmlns:xlink="http://www.w3.org/1999/xlink" xmlns="http://www.w3.org/2000/svg" width="24" height="24" viewBox="0 0 24 24" fill="none" stroke="currentColor" stroke-width="2" stroke-linecap="round" stroke-linejoin="round" class="lucide lucide-book-open h-6 w-6 text-purple-600 dark:text-purple-400 items-center" aria-hidden="true"><path d="M12 7v14" stroke="oklch(0.714 0.203 305.504)" fill="none" stroke-width="2px"></path><path d="M3 18a1 1 0 0 1-1-1V4a1 1 0 0 1 1-1h5a4 4 0 0 1 4 4 4 4 0 0 1 4-4h5a1 1 0 0 1 1 1v13a1 1 0 0 1-1 1h-6a3 3 0 0 0-3 3 3 3 0 0 0-3-3z" stroke="oklch(0.714 0.203 305.504)" fill="none" stroke-width="2px"></path></svg>